<svg width="820" height="220" viewBox="0 0 820 220" fill="none" xmlns="http://www.w3.org/2000/svg" role="img" aria-labelledby="title desc">
  <title id="title">Corevia Systems logo</title>
  <desc id="desc">A gradient infinity mark followed by the Corevia wordmark.</desc>
  <defs>
    <linearGradient id="coreviaGradient" x1="50" y1="20" x2="370" y2="180" gradientUnits="userSpaceOnUse">
      <stop stop-color="#FF8A00"/>
      <stop offset="0.45" stop-color="#FF3D54"/>
      <stop offset="1" stop-color="#E3005A"/>
    </linearGradient>
    <linearGradient id="wordGradient" x1="390" y1="50" x2="790" y2="160" gradientUnits="userSpaceOnUse">
      <stop stop-color="#FF6B2C"/>
      <stop offset="1" stop-color="#E40053"/>
    </linearGradient>
    <filter id="softShadow" x="0" y="0" width="820" height="220" filterUnits="userSpaceOnUse" color-interpolation-filters="sRGB">
      <feDropShadow dx="0" dy="4" stdDeviation="4" flood-color="#B91C1C" flood-opacity="0.28"/>
    </filter>
  </defs>

  <g filter="url(#softShadow)">
    <path d="M64 112C64 72 96 40 136 40C164 40 188 56 200 79" stroke="url(#coreviaGradient)" stroke-width="20" stroke-linecap="round"/>
    <path d="M356 112C356 72 324 40 284 40C256 40 232 56 220 79" stroke="url(#coreviaGradient)" stroke-width="20" stroke-linecap="round"/>
    <path d="M64 112C64 152 96 184 136 184C173 184 206 154 244 115C282 76 315 46 352 46" stroke="url(#coreviaGradient)" stroke-width="22" stroke-linecap="round"/>
    <path d="M356 112C356 152 324 184 284 184C247 184 214 154 176 115C138 76 105 46 68 46" stroke="url(#coreviaGradient)" stroke-width="22" stroke-linecap="round"/>
    <circle cx="66" cy="46" r="8" fill="#fff"/>
    <circle cx="352" cy="46" r="8" fill="#fff"/>
  </g>

  <text x="408" y="150" fill="url(#wordGradient)" font-family="Inter, Poppins, Arial, sans-serif" font-size="98" font-weight="800" letter-spacing="1.8">
    COREVIA
  </text>
</svg>
